<svg fill="none" height="2195" viewBox="0 0 2226 2195" width="2226" xmlns="http://www.w3.org/2000/svg" xmlns:xlink="http://www.w3.org/1999/xlink"><linearGradient id="a"><stop offset="0" stop-color="#734dff" stop-opacity=".9"/><stop offset=".12" stop-color="#734dff" stop-opacity=".7"/><stop offset=".795" stop-color="#ff318c" stop-opacity=".5"/><stop offset="1" stop-color="#fdb60d" stop-opacity=".05"/></linearGradient><linearGradient id="b" gradientUnits="userSpaceOnUse" x1="983.771" x2="627.168" xlink:href="#a" y1="1918.71" y2="1045.49"/><linearGradient id="c" gradientUnits="userSpaceOnUse" x1="955.216" x2="695.862" xlink:href="#a" y1="1811.49" y2="974.26"/><linearGradient id="d" gradientUnits="userSpaceOnUse" x1="941.126" x2="771.661" xlink:href="#a" y1="1708.79" y2="909.207"/><linearGradient id="e" gradientUnits="userSpaceOnUse" x1="939.235" x2="853.631" xlink:href="#a" y1="1611.7" y2="852.139"/><linearGradient id="f" gradientUnits="userSpaceOnUse" x1="947.46" x2="940.47" xlink:href="#a" y1="1521.03" y2="804.845"/><linearGradient id="g" gradientUnits="userSpaceOnUse" x1="963.905" x2="1030.42" xlink:href="#a" y1="1437.29" y2="769.006"/><linearGradient id="h" gradientUnits="userSpaceOnUse" x1="986.835" x2="1121.13" xlink:href="#a" y1="1360.82" y2="746.041"/><linearGradient id="i" gradientUnits="userSpaceOnUse" x1="1014.72" x2="1209.71" xlink:href="#a" y1="1291.76" y2="736.82"/><linearGradient id="j" gradientUnits="userSpaceOnUse" x1="1046.17" x2="1292.75" xlink:href="#a" y1="1230.06" y2="741.285"/><linearGradient id="k" gradientUnits="userSpaceOnUse" x1="1080.01" x2="1366.81" xlink:href="#a" y1="1175.59" y2="758.174"/><linearGradient id="l" gradientUnits="userSpaceOnUse" x1="1115.21" x2="1428.92" xlink:href="#a" y1="1128.08" y2="784.87"/><linearGradient id="m" gradientUnits="userSpaceOnUse" x1="1150.88" x2="1477.32" xlink:href="#a" y1="1087.17" y2="817.671"/><linearGradient id="n" gradientUnits="userSpaceOnUse" x1="1186.29" x2="1511.87" xlink:href="#a" y1="1052.49" y2="852.505"/><path d="m1351.74 1716.08 484.02-566.5c143.13-167.526 147.85-380.969 10.55-476.744l-464.3-323.882c-137.3-95.775-364.63-37.613-507.764 129.908l-484.022 566.508c-143.129 167.52-147.855 380.96-10.556 476.74l464.307 323.88c137.3 95.78 364.635 37.61 507.765-129.91z" fill="url(#b)"/><path d="m1298.22 1658.08 481.73-481.41c142.45-142.36 168.33-340.86 57.79-443.37l-373.79-346.658c-110.53-102.51-315.61-70.208-458.07 72.149l-481.727 481.409c-142.452 142.36-168.327 340.86-57.794 443.37l373.79 346.66c110.533 102.51 315.621 70.2 458.071-72.15z" fill="url(#c)"/><path d="m1257.25 1598.85 471.05-402.3c139.3-118.97 182.18-301.506 95.78-407.713l-292.17-359.164c-86.39-106.208-269.35-95.866-408.65 23.099l-471.058 402.305c-139.295 118.965-182.178 301.503-95.781 407.713l292.171 359.16c86.398 106.21 269.358 95.87 408.658-23.1z" fill="url(#d)"/><path d="m1227.38 1539.7 453.65-329.6c134.15-97.46 190.3-263.482 125.43-370.81l-219.39-362.954c-64.88-107.328-226.22-115.324-360.37-17.859l-453.653 329.599c-134.148 97.465-190.305 263.484-125.429 370.814l219.393 362.95c64.876 107.33 226.219 115.32 360.369 17.86z" fill="url(#e)"/><path d="m1207.23 1481.68 431-263.5c127.45-77.92 193.55-227.262 147.64-333.56l-155.24-359.47c-45.91-106.298-186.44-129.303-313.89-51.383l-431.004 263.504c-127.45 77.92-193.554 227.259-147.646 333.559l155.246 359.47c45.908 106.3 186.444 129.3 313.894 51.38z" fill="url(#f)"/><path d="m1195.49 1425.65 404.42-204.07c119.6-60.35 192.71-193.18 163.32-296.694l-99.4-350.041c-29.4-103.509-150.18-138.5-269.77-78.152l-404.421 204.078c-119.591 60.347-192.711 193.18-163.316 296.689l99.404 350.04c29.394 103.51 150.173 138.5 269.763 78.15z" fill="url(#g)"/><path d="m1190.91 1372.3 375.09-151.25c110.91-44.72 188.5-161.49 173.29-260.812l-51.44-335.868c-15.21-99.319-117.46-143.577-228.38-98.852l-375.09 151.246c-110.917 44.724-188.502 161.495-173.29 260.814l51.441 335.872c15.212 99.32 117.459 143.57 228.379 98.85z" fill="url(#h)"/><path d="m1192.33 1322.13 344.01-104.83c101.73-31 181.59-132.37 178.38-226.411l-10.87-318.034c-3.21-94.046-88.28-145.156-190.01-114.157l-344.01 104.826c-101.72 30.999-181.586 132.366-178.373 226.412l10.863 318.034c3.22 94.05 88.29 145.16 190.01 114.16z" fill="url(#i)"/><path d="m1198.68 1275.49 312.06-64.55c92.28-19.09 172.57-105.88 179.33-193.86l22.86-297.496c6.77-87.973-62.56-143.815-154.84-124.726l-312.05 64.554c-92.28 19.089-172.57 105.88-179.33 193.853l-22.87 297.495c-6.76 87.98 62.57 143.82 154.84 124.73z" fill="url(#j)"/><path d="m1209 1232.63 279.96-30.09c82.79-8.9 161.96-82.06 176.85-163.41l50.32-275.109c14.89-81.352-40.16-140.086-122.95-131.187l-279.96 30.093c-82.79 8.899-161.96 82.061-176.84 163.413l-50.33 275.11c-14.88 81.35 40.16 140.08 122.95 131.18z" fill="url(#k)"/><path d="m1222.4 1193.68 248.34-1.06c73.43-.32 150.24-60.88 171.57-135.28l72.1-251.585c21.32-74.396-20.92-134.451-94.36-134.136l-248.33 1.066c-73.43.315-150.25 60.881-171.57 135.277l-72.11 251.588c-21.32 74.39 20.93 134.45 94.36 134.13z" fill="url(#l)"/><path d="m1238.11 1158.66 217.67 22.95c64.36 6.78 137.83-42.27 164.08-109.56l88.79-227.565c26.26-67.293-4.64-127.344-69-134.129l-217.67-22.943c-64.37-6.785-137.83 42.266-164.09 109.558l-88.79 227.559c-26.25 67.3 4.64 127.35 69.01 134.13z" fill="url(#m)"/><path d="m1255.43 1127.53 188.36 42.37c55.7 12.53 125.06-26.11 154.91-86.3l100.96-203.567c29.86-60.195 8.91-119.15-46.79-131.678l-188.36-42.369c-55.7-12.528-125.06 26.113-154.91 86.308l-100.96 203.563c-29.86 60.193-8.91 119.153 46.79 131.673z" fill="url(#n)"/></svg>